<svg width="47" height="47" viewBox="0 0 47 47" fill="none" xmlns="http://www.w3.org/2000/svg">
<path d="M41.0979 34.4623C40.8792 34.2434 40.5244 34.2434 40.3057 34.4623L38.5218 36.2474C38.3033 36.4661 38.3033 36.8205 38.5219 37.0391L40.1168 38.635H31.4259L43.3301 26.7243V31.3091C43.3301 31.4576 43.389 31.6 43.494 31.705L46.0166 34.229C46.3694 34.5819 46.9727 34.3321 46.9727 33.8331V5.09664C46.9727 2.28631 44.6877 0 41.8792 0H13.0668C12.568 0 12.3181 0.603074 12.6708 0.95589L15.1942 3.48052C15.2993 3.5856 15.4417 3.64463 15.5903 3.64463H20.3546L8.35927 15.6469V6.9512L9.95377 8.54657C10.1725 8.76542 10.5273 8.7654 10.746 8.54654L12.5299 6.76141C12.7484 6.54274 12.7484 6.18836 12.5299 5.9697L6.82697 0.263355C6.71761 0.153931 6.54024 0.153928 6.43088 0.26335L0.727685 5.96967C0.509137 6.18834 0.509136 6.54275 0.727685 6.76142L2.51184 8.54655C2.73058 8.76541 3.08535 8.76539 3.30406 8.54652L4.71629 7.13323V37.1834C4.71629 39.9937 7.00134 42.28 9.81013 42.28H39.9345L38.5219 43.6935C38.3033 43.9121 38.3033 44.2665 38.5218 44.4852L40.3057 46.2703C40.5244 46.4892 40.8792 46.4892 41.0979 46.2703L46.8009 40.5642C46.9101 40.4549 46.9101 40.2777 46.8009 40.1684L41.0979 34.4623ZM26.2741 38.635H21.1802L43.3301 16.4733V21.5696L26.2741 38.635ZM8.35927 30.9158L35.6151 3.64499H40.7541L8.35927 36.0577V30.9158ZM43.3301 6.22234V11.3186L16.0287 38.635H10.9349L43.3301 6.22234ZM25.5061 3.64499H30.4632L8.35927 25.7611V20.8012L25.5061 3.64499Z" fill="#06C9F3"/>
</svg>
