<svg width="70" height="70" viewBox="0 0 70 70" fill="none" xmlns="http://www.w3.org/2000/svg">
<path d="M26.2503 55.4166V11.6666" stroke="#323232" stroke-width="3.5" stroke-linecap="round" stroke-linejoin="round"/>
<path d="M43.7503 40.8334V60.9477" stroke="#323232" stroke-width="3.5" stroke-linecap="round" stroke-linejoin="round"/>
<path d="M61.25 37.9168V53.4688C61.2527 54.7225 60.4517 55.8367 59.2625 56.2335C55.4785 57.495 47.3743 60.1968 44.6584 61.1026C44.0638 61.3008 43.4208 61.2992 42.8272 61.0981L27.1724 55.8792C26.5737 55.6796 25.9263 55.6796 25.3276 55.8792L12.5891 60.1258C11.6997 60.4223 10.7219 60.2732 9.9613 59.725C9.20071 59.1768 8.75 58.2964 8.75 57.3589V19.2874C8.75 18.032 9.55329 16.9175 10.7442 16.5205L24.4051 11.9663C25.6026 11.5671 26.8972 11.5671 28.0947 11.9663L32.0833 13.2959" stroke="#111111" stroke-width="3.5" stroke-linecap="round" stroke-linejoin="round"/>
<path d="M40.833 18.9584C40.833 23.7374 46.048 28.8424 49.023 31.3669C50.1979 32.3222 51.8818 32.3222 53.0568 31.3669C56.0347 28.8424 61.2497 23.7374 61.2497 18.9584" stroke="#FF9C12" stroke-width="3.5" stroke-linecap="round" stroke-linejoin="round"/>
<path d="M51.0443 18.2292C51.4466 18.2308 51.7716 18.558 51.7705 18.9603C51.7694 19.3626 51.4427 19.688 51.0404 19.6875C50.6381 19.687 50.3122 19.3607 50.3122 18.9584C50.3111 18.7641 50.388 18.5776 50.5256 18.4406C50.6632 18.3035 50.8501 18.2274 51.0443 18.2292" stroke="#FF9C12" stroke-width="3.5" stroke-linecap="round" stroke-linejoin="round"/>
<path d="M40.833 18.9583V18.9583C40.833 13.3204 45.4034 8.75 51.0413 8.75V8.75C56.6792 8.75 61.2497 13.3204 61.2497 18.9583V18.9583" stroke="#FF9C12" stroke-width="3.5" stroke-linecap="round" stroke-linejoin="round"/>
</svg>
