<svg width="70" height="70" viewBox="0 0 70 70" fill="none" xmlns="http://www.w3.org/2000/svg">
<path fill-rule="evenodd" clip-rule="evenodd" d="M25.3737 30.8356C22.4481 35.9031 24.1843 42.3828 29.2517 45.3084C34.3191 48.2341 40.7988 46.4979 43.7245 41.4305C48.0401 33.9557 39.9213 26.8223 39.9481 21.1268C33.8163 21.8444 28.3983 25.4536 25.3737 30.8356V30.8356Z" stroke="#90C900" stroke-width="3.5" stroke-linecap="round" stroke-linejoin="round"/>
<path fill-rule="evenodd" clip-rule="evenodd" d="M46.6717 61.2608H23.3287C15.2712 61.2608 8.73926 54.7289 8.73926 46.6714V23.3283C8.73926 15.2708 15.2712 8.73889 23.3287 8.73889H46.6717C54.7292 8.73889 61.2611 15.2708 61.2611 23.3283V46.6714C61.2611 54.7289 54.7292 61.2608 46.6717 61.2608Z" stroke="#111111" stroke-width="3.5" stroke-linecap="round" stroke-linejoin="round"/>
<path d="M34.1897 34.4498C32.0857 40.0765 32.4795 46.3332 35.2724 51.6517" stroke="#90C900" stroke-width="3.5" stroke-linecap="round" stroke-linejoin="round"/>
</svg>
