<svg width="72" height="72" viewBox="0 0 72 72" fill="none" xmlns="http://www.w3.org/2000/svg">
<path d="M19.0762 30.1642L22.6068 16.9754C23.0074 15.4807 23.9863 14.2068 25.3275 13.4349C26.6687 12.663 28.262 12.4566 29.7556 12.8612L57.9424 20.4185C59.4371 20.8191 60.7109 21.798 61.4828 23.1392C62.2547 24.4804 62.4611 26.0736 62.0566 27.5673L57.5339 44.4618C56.729 47.5024 53.6518 49.3514 50.5893 48.6344" stroke="#06C9F3" stroke-width="3.5" stroke-linecap="round" stroke-linejoin="round"/>
<path fill-rule="evenodd" clip-rule="evenodd" d="M50.5896 53.5072V35.9999C50.59 34.4521 49.9753 32.9675 48.8808 31.873C47.7863 30.7785 46.3017 30.1638 44.7538 30.1642H15.575C14.0272 30.1638 12.5426 30.7785 11.448 31.873C10.3535 32.9675 9.73883 34.4521 9.73926 35.9999V53.5072C9.73883 55.0551 10.3535 56.5397 11.448 57.6342C12.5426 58.7287 14.0272 59.3434 15.575 59.343H44.7538C47.9768 59.343 50.5896 56.7302 50.5896 53.5072Z" stroke="#111111" stroke-width="3.5" stroke-linecap="round" stroke-linejoin="round"/>
<path d="M9.73926 42.0662H50.5896" stroke="#111111" stroke-width="3.5" stroke-linecap="round" stroke-linejoin="round"/>
</svg>
