<svg width="40" height="46" viewBox="0 0 40 46" fill="none" xmlns="http://www.w3.org/2000/svg">
<path d="M38.4795 13.8624C38.4795 10.4632 35.8999 7.66732 32.5915 7.32392C31.663 4.81992 29.2599 3.03171 26.4321 3.03171C25.1943 3.03171 24.0406 3.3802 23.0525 3.97482C21.9287 1.96234 19.7805 0.599609 17.3113 0.599609C14.0377 0.599609 11.3304 2.99542 10.828 6.12745C10.5609 6.09481 10.2908 6.07226 10.0149 6.07226C6.38415 6.07226 3.44018 9.01555 3.44018 12.647C3.44018 12.8249 3.45324 12.9991 3.46705 13.1734C1.62593 14.3386 0.400391 16.3874 0.400391 18.7273C0.400391 20.7958 1.35732 22.6383 2.85064 23.8435C2.84411 23.9619 2.83249 24.0794 2.83249 24.1993C2.83249 27.8301 5.77578 30.774 9.40723 30.774C10.4955 30.774 11.5192 30.5054 12.4231 30.0379C13.6754 30.9374 15.4687 32.0627 16.337 31.8384C16.337 31.8384 16.66 36.8421 16.5903 38.1126C16.4575 40.5302 15.7322 43.2215 15.2218 45.3996H23.1267C23.1267 45.3996 21.9614 40.5441 21.9105 38.9229C21.8597 37.3016 22.4173 34.3163 22.4173 34.3163L25.1595 31.4798C26.215 32.2015 27.4899 32.6117 28.865 32.6117C32.2642 32.6117 35.0601 30.0256 35.4035 26.7171C37.9074 25.7886 39.6956 23.379 39.6956 20.5511C39.6956 18.8813 39.0683 17.3625 38.0432 16.2024C38.3205 15.4748 38.4795 14.6879 38.4795 13.8624ZM13.9419 28.9524C14.4689 28.4493 14.9111 27.8613 15.2486 27.2086L16.5395 29.9129C16.5388 29.913 15.8367 30.223 13.9419 28.9524ZM18.7684 30.6223C18.1004 30.7435 16.9628 28.6867 16.1555 27.0147C17.0507 27.4713 18.0613 27.7342 19.1357 27.7342C19.4116 27.7342 19.6824 27.7117 19.9496 27.6783C19.742 29.0164 19.3761 30.5112 18.7684 30.6223ZM21.6064 31.9385C20.0614 32.3676 20.9863 29.1673 21.4292 27.3146C21.7494 27.1955 22.0594 27.0554 22.3541 26.8891C22.532 28.2394 23.1186 29.4577 23.9877 30.4211C23.2348 31.0899 22.3679 31.7272 21.6064 31.9385Z" fill="#90C900"/>
</svg>
